{
  "accessors": [
    {
      "bufferView": 2,
      "componentType": 5126,
      "count": 6511,
      "max": [
        0.25175344944000244,
        0.03159897029399872,
        1.703316330909729
      ],
      "min": [
        -0.25175344944000244,
        -0.0827987939119339,
        0.0009586962987668812
      ],
      "type": "VEC3"
    },
    {
      "bufferView": 2,
      "byteOffset": 78132,
      "componentType": 5126,
      "count": 6511,
      "max": [
        0.9999260902404785,
        1.0,
        0.9999972581863403
      ],
      "min": [
        -0.9999260902404785,
        -1.0,
        -0.9990392327308655
      ],
      "type": "VEC3"
    },
    {
      "bufferView": 1,
      "componentType": 5126,
      "count": 6511,
      "max": [
        0.8625982403755188,
        0.9494572281837463
      ],
      "min": [
        0.1375354528427124,
        0.04666110500693321
      ],
      "type": "VEC2"
    },
    {
      "bufferView": 0,
      "componentType": 5125,
      "count": 21696,
      "type": "SCALAR"
    },
    {
      "bufferView": 2,
      "byteOffset": 156264,
      "componentType": 5126,
      "count": 5675,
      "max": [
        0.012446118518710136,
        0.09687037020921707,
        0.17135192453861237
      ],
      "min": [
        -0.012427669018507004,
        0.004239581059664488,
        0.019909489899873734
      ],
      "type": "VEC3"
    },
    {
      "bufferView": 2,
      "byteOffset": 224364,
      "componentType": 5126,
      "count": 5675,
      "max": [
        1.0,
        0.99998939037323,
        0.999649167060852
      ],
      "min": [
        -1.0,
        -0.9992078542709351,
        -0.9996776580810547
      ],
      "type": "VEC3"
    },
    {
      "bufferView": 1,
      "byteOffset": 52088,
      "componentType": 5126,
      "count": 5675,
      "max": [
        1.0000001192092896,
        1.0000001192092896
      ],
      "min": [
        -3.932398850992058e-09,
        0.011537188664078712
      ],
      "type": "VEC2"
    },
    {
      "bufferView": 0,
      "byteOffset": 86784,
      "componentType": 5125,
      "count": 20736,
      "type": "SCALAR"
    },
    {
      "bufferView": 2,
      "byteOffset": 292464,
      "componentType": 5126,
      "count": 11345,
      "max": [
        0.16244438290596008,
        0.10635734349489212,
        0.37467160820961
      ],
      "min": [
        -0.16244439780712128,
        0.0138449901714921,
        0.22316311299800873
      ],
      "type": "VEC3"
    },
    {
      "bufferView": 2,
      "byteOffset": 428604,
      "componentType": 5126,
      "count": 11345,
      "max": [
        0.9999911785125732,
        0.9999837875366211,
        0.9984066486358643
      ],
      "min": [
        -0.9999911785125732,
        -0.9990590810775757,
        -0.9984381198883057
      ],
      "type": "VEC3"
    },
    {
      "bufferView": 1,
      "byteOffset": 97488,
      "componentType": 5126,
      "count": 11345,
      "max": [
        1.0000001192092896,
        1.0000001192092896
      ],
      "min": [
        -3.932398850992058e-09,
        0.011537188664078712
      ],
      "type": "VEC2"
    },
    {
      "bufferView": 0,
      "byteOffset": 169728,
      "componentType": 5125,
      "count": 41472,
      "type": "SCALAR"
    }
  ],
  "asset": {
    "extras": {
      "author": "CICLOM (https://sketchfab.com/CICLOM)",
      "license": "CC-BY-4.0 (http://creativecommons.org/licenses/by/4.0/)",
      "source": "https://sketchfab.com/3d-models/ciclom-surfboard-c61f4371e164490d8faf5bb6b7d07f8f",
      "title": "Ciclom_Surfboard"
    },
    "generator": "Sketchfab-12.68.0",
    "version": "2.0"
  },
  "bufferViews": [
    {
      "buffer": 0,
      "byteLength": 335616,
      "name": "floatBufferViews",
      "target": 34963
    },
    {
      "buffer": 0,
      "byteLength": 188248,
      "byteOffset": 335616,
      "byteStride": 8,
      "name": "floatBufferViews",
      "target": 34962
    },
    {
      "buffer": 0,
      "byteLength": 564744,
      "byteOffset": 523864,
      "byteStride": 12,
      "name": "floatBufferViews",
      "target": 34962
    }
  ],
  "buffers": [
    {
      "byteLength": 1088608,
      "uri": "scene.bin"
    }
  ],
  "images": [
    {
      "uri": "textures/Surfboard_baseColor.png"
    }
  ],
  "materials": [
    {
      "doubleSided": true,
      "name": "Surfboard",
      "pbrMetallicRoughness": {
        "baseColorTexture": {
          "index": 0
        },
        "metallicFactor": 0.0,
        "roughnessFactor": 0.7701371737080391
      }
    },
    {
      "doubleSided": true,
      "name": "Material",
      "pbrMetallicRoughness": {
        "baseColorFactor": [
          0.0,
          0.0,
          0.0,
          1.0
        ],
        "metallicFactor": 0.0
      }
    }
  ],
  "meshes": [
    {
      "name": "SurfBoard_Surfboard_0",
      "primitives": [
        {
          "attributes": {
            "NORMAL": 1,
            "POSITION": 0,
            "TEXCOORD_0": 2
          },
          "indices": 3,
          "material": 0,
          "mode": 4
        }
      ]
    },
    {
      "name": "quilla.000_Material_0",
      "primitives": [
        {
          "attributes": {
            "NORMAL": 5,
            "POSITION": 4,
            "TEXCOORD_0": 6
          },
          "indices": 7,
          "material": 1,
          "mode": 4
        }
      ]
    },
    {
      "name": "quilla.001_Material_0",
      "primitives": [
        {
          "attributes": {
            "NORMAL": 9,
            "POSITION": 8,
            "TEXCOORD_0": 10
          },
          "indices": 11,
          "material": 1,
          "mode": 4
        }
      ]
    }
  ],
  "nodes": [
    {
      "children": [
        1
      ],
      "matrix": [
        1.0,
        0.0,
        0.0,
        0.0,
        0.0,
        2.220446049250313e-16,
        -1.0,
        0.0,
        0.0,
        1.0,
        2.220446049250313e-16,
        0.0,
        0.0,
        0.0,
        0.0,
        1.0
      ],
      "name": "Sketchfab_model"
    },
    {
      "children": [
        2
      ],
      "matrix": [
        1.0,
        0.0,
        0.0,
        0.0,
        0.0,
        0.0,
        1.0,
        0.0,
        0.0,
        -1.0,
        0.0,
        0.0,
        0.0,
        0.0,
        0.0,
        1.0
      ],
      "name": "f02d58ef19144c2fa7f1151a72e1c6d3.fbx"
    },
    {
      "children": [
        3,
        5,
        7
      ],
      "name": "RootNode"
    },
    {
      "children": [
        4
      ],
      "matrix": [
        100.0,
        0.0,
        0.0,
        0.0,
        0.0,
        -1.629206793918314e-05,
        -99.99999999999868,
        0.0,
        0.0,
        99.99999999999868,
        -1.629206793918314e-05,
        0.0,
        0.0,
        0.0,
        0.0,
        1.0
      ],
      "name": "SurfBoard"
    },
    {
      "mesh": 0,
      "name": "SurfBoard_Surfboard_0"
    },
    {
      "children": [
        6
      ],
      "matrix": [
        100.0,
        0.0,
        0.0,
        0.0,
        0.0,
        -1.629206793918314e-05,
        -99.99999999999868,
        0.0,
        0.0,
        99.99999999999868,
        -1.629206793918314e-05,
        0.0,
        0.0,
        0.0,
        -0.17859698832035065,
        1.0
      ],
      "name": "quilla.000"
    },
    {
      "mesh": 1,
      "name": "quilla.000_Material_0"
    },
    {
      "children": [
        8
      ],
      "matrix": [
        100.0,
        0.0,
        0.0,
        0.0,
        0.0,
        -1.629206793918314e-05,
        -99.99999999999868,
        0.0,
        0.0,
        99.99999999999868,
        -1.629206793918314e-05,
        0.0,
        0.0,
        0.0,
        0.0,
        1.0
      ],
      "name": "quilla.001"
    },
    {
      "mesh": 2,
      "name": "quilla.001_Material_0"
    }
  ],
  "samplers": [
    {
      "magFilter": 9729,
      "minFilter": 9987,
      "wrapS": 10497,
      "wrapT": 10497
    }
  ],
  "scene": 0,
  "scenes": [
    {
      "name": "Sketchfab_Scene",
      "nodes": [
        0
      ]
    }
  ],
  "textures": [
    {
      "sampler": 0,
      "source": 0
    }
  ]
}
